# xmcd
#
# Track frame offsets: 
#        150
#        24658
#        47382
#        78867
#        96621
#        119755
#        142982
#        164790
#
# Disc length: 2568 seconds
#
# Revision: 2
# Processed by: cddbd v1.5.2PL0 Copyright (c) Steve Scherf et al.
# Submitted via: ExactAudioCopy v0.99pb4
#
DISCID=6b0a0608
DTITLE=The Mutants - Grave Groove
DYEAR=2007
DGENRE=Progressive Rock
TTITLE0=Wham
TTITLE1=Outerspace Odyssey
TTITLE2=El Matador del Diablo
TTITLE3=Queen of the Meadow Hill
TTITLE4=Kalkutta
TTITLE5=Nacht im Café Ohne
TTITLE6=CMC (Carlos Muchas Cervezas)
TTITLE7=Dark Galaxy
EXTD=
EXTT0=
EXTT1=
EXTT2=
EXTT3=
EXTT4=
EXTT5=
EXTT6=
EXTT7=
PLAYORDER=
